<svg preserveAspectRatio="none" width="100%" height="100%" overflow="visible" style="display: block;" viewBox="0 0 16 16" fill="none" xmlns="http://www.w3.org/2000/svg">
<g id="apparel">
<mask id="mask0_0_8" style="mask-type:alpha" maskUnits="userSpaceOnUse" x="0" y="0" width="16" height="16">
<rect id="Bounding box" width="16" height="16" fill="var(--fill-0, #D9D9D9)"/>
</mask>
<g mask="url(#mask0_0_8)">
<path id="apparel_2" d="M4 7.3L3.33333 7.66667C3.17778 7.75556 3.01111 7.77778 2.83333 7.73333C2.65556 7.68889 2.52222 7.58889 2.43333 7.43333L1.1 5.1C1.01111 4.94444 0.988889 4.77778 1.03333 4.6C1.07778 4.42222 1.17778 4.28889 1.33333 4.2L5.16667 2H6.33333C6.43333 2 6.51389 2.03056 6.575 2.09167C6.63611 2.15278 6.66667 2.23333 6.66667 2.33333V2.66667C6.66667 3.03333 6.79722 3.34722 7.05833 3.60833C7.31945 3.86944 7.63333 4 8 4C8.36667 4 8.68056 3.86944 8.94167 3.60833C9.20278 3.34722 9.33333 3.03333 9.33333 2.66667V2.33333C9.33333 2.23333 9.36389 2.15278 9.425 2.09167C9.48611 2.03056 9.56667 2 9.66667 2H10.8333L14.6667 4.2C14.8222 4.28889 14.9222 4.42222 14.9667 4.6C15.0111 4.77778 14.9889 4.94444 14.9 5.1L13.5667 7.43333C13.4778 7.58889 13.3472 7.68611 13.175 7.725C13.0028 7.76389 12.8333 7.73889 12.6667 7.65L12 7.31667V13.3333C12 13.5222 11.9361 13.6806 11.8083 13.8083C11.6806 13.9361 11.5222 14 11.3333 14H4.66667C4.47778 14 4.31944 13.9361 4.19167 13.8083C4.06389 13.6806 4 13.5222 4 13.3333V7.3Z" fill="url(#paint0_linear_0_8)"/>
</g>
</g>
<defs>
<linearGradient id="paint0_linear_0_8" x1="18.1813" y1="-0.255011" x2="4.9555" y2="15.1506" gradientUnits="userSpaceOnUse">
<stop offset="0.123144" stop-color="#EBFF38"/>
<stop offset="1" stop-color="#3DD6F5"/>
</linearGradient>
</defs>
</svg>
