<svg preserveAspectRatio="none" width="100%" height="100%" overflow="visible" style="display: block;" viewBox="0 0 17 21" fill="none" xmlns="http://www.w3.org/2000/svg">
<g id="carrot-forward">
<g id="Vector">
<path d="M13.5498 10.3184L13.373 10.4951L6.49414 17.373L6.31738 17.5498L4.75 15.9824L4.93066 15.8057L10.5283 10.3174L4.93066 4.83008L4.75 4.65332L6.31738 3.08594L13.5498 10.3184Z" fill="var(--fill-0, white)"/>
<path d="M13.5498 10.3184L13.373 10.4951L6.49414 17.373L6.31738 17.5498L4.75 15.9824L4.93066 15.8057L10.5283 10.3174L4.93066 4.83008L4.75 4.65332L6.31738 3.08594L13.5498 10.3184Z" fill="url(#paint0_linear_0_16)"/>
<path d="M13.5498 10.3184L13.373 10.4951L6.49414 17.373L6.31738 17.5498L4.75 15.9824L4.93066 15.8057L10.5283 10.3174L4.93066 4.83008L4.75 4.65332L6.31738 3.08594L13.5498 10.3184Z" stroke="var(--stroke-0, white)" stroke-width="0.5"/>
<path d="M13.5498 10.3184L13.373 10.4951L6.49414 17.373L6.31738 17.5498L4.75 15.9824L4.93066 15.8057L10.5283 10.3174L4.93066 4.83008L4.75 4.65332L6.31738 3.08594L13.5498 10.3184Z" stroke="url(#paint1_linear_0_16)" stroke-width="0.5"/>
</g>
</g>
<defs>
<linearGradient id="paint0_linear_0_16" x1="9.15093" y1="3.43945" x2="9.15093" y2="17.1966" gradientUnits="userSpaceOnUse">
<stop stop-color="white"/>
<stop offset="1" stop-color="white" stop-opacity="0"/>
</linearGradient>
<linearGradient id="paint1_linear_0_16" x1="9.15093" y1="3.43945" x2="9.15093" y2="17.1966" gradientUnits="userSpaceOnUse">
<stop stop-color="white"/>
<stop offset="1" stop-color="white" stop-opacity="0"/>
</linearGradient>
</defs>
</svg>
