<svg preserveAspectRatio="none" width="100%" height="100%" overflow="visible" style="display: block;" viewBox="0 0 16 16" fill="none" xmlns="http://www.w3.org/2000/svg">
<g id="Icon-PriceTag" clip-path="url(#clip0_0_5)">
<path id="sell" d="M15.52 9.8L9.8 15.52C9.64 15.68 9.46 15.8 9.26 15.88C9.06 15.96 8.86 16 8.66 16C8.46 16 8.26 15.96 8.06 15.88C7.86 15.8 7.68 15.68 7.52 15.52L0.46 8.46C0.313333 8.31333 0.2 8.14333 0.12 7.95C0.04 7.75667 0 7.55333 0 7.34V1.6C0 1.16 0.156667 0.783333 0.47 0.47C0.783333 0.156667 1.16 0 1.6 0H7.34C7.55333 0 7.76 0.0433333 7.96 0.13C8.16 0.216667 8.33333 0.333333 8.48 0.48L15.52 7.54C15.68 7.7 15.7967 7.88 15.87 8.08C15.9433 8.28 15.98 8.48 15.98 8.68C15.98 8.88 15.9433 9.07667 15.87 9.27C15.7967 9.46333 15.68 9.64 15.52 9.8ZM3.6 4.8C3.93333 4.8 4.21667 4.68333 4.45 4.45C4.68333 4.21667 4.8 3.93333 4.8 3.6C4.8 3.26667 4.68333 2.98333 4.45 2.75C4.21667 2.51667 3.93333 2.4 3.6 2.4C3.26667 2.4 2.98333 2.51667 2.75 2.75C2.51667 2.98333 2.4 3.26667 2.4 3.6C2.4 3.93333 2.51667 4.21667 2.75 4.45C2.98333 4.68333 3.26667 4.8 3.6 4.8Z" fill="url(#paint0_linear_0_5)"/>
</g>
<defs>
<linearGradient id="paint0_linear_0_5" x1="19.6297" y1="-3.00668" x2="1.7897" y2="14.811" gradientUnits="userSpaceOnUse">
<stop stop-color="#EBFF38"/>
<stop offset="1" stop-color="#3DD6F5"/>
</linearGradient>
<clipPath id="clip0_0_5">
<rect width="16" height="16" fill="white"/>
</clipPath>
</defs>
</svg>
