<svg preserveAspectRatio="none" width="100%" height="100%" overflow="visible" style="display: block;" viewBox="0 0 16 16" fill="none" xmlns="http://www.w3.org/2000/svg">
<g id="shopping_bag_speed">
<mask id="mask0_0_17" style="mask-type:alpha" maskUnits="userSpaceOnUse" x="0" y="0" width="16" height="16">
<rect id="Bounding box" width="16" height="16" fill="var(--fill-0, #D9D9D9)"/>
</mask>
<g mask="url(#mask0_0_17)">
<path id="shopping_bag_speed_2" d="M3.8503 14.6667C3.49474 14.6667 3.19752 14.5333 2.95863 14.2667C2.71974 14 2.62252 13.6889 2.66696 13.3333H5.38363L6.0503 10.6667H7.38363L8.38363 6.66668H3.5003L3.68363 5.16668C3.72808 4.83334 3.87808 4.55556 4.13363 4.33334C4.38919 4.11112 4.68363 4.00001 5.01696 4.00001H6.33363C6.42252 3.16668 6.70863 2.5139 7.19196 2.04168C7.6753 1.56945 8.33363 1.33334 9.16696 1.33334C9.87807 1.33334 10.4697 1.59723 10.942 2.12501C11.4142 2.65279 11.6447 3.27779 11.6336 4.00001H13.3336C13.7336 4.00001 14.067 4.15001 14.3336 4.45001C14.6003 4.75001 14.7059 5.10001 14.6503 5.50001L13.6503 13.5C13.6059 13.8333 13.4586 14.1111 13.2086 14.3333C12.9586 14.5556 12.667 14.6667 12.3336 14.6667H3.8503ZM0.666964 12L1.0003 10.6667H4.66696L4.33363 12H0.666964ZM2.0003 9.33334L2.33363 8.00001H6.66696L6.33363 9.33334H2.0003ZM7.66696 4.00001H10.317C10.3281 3.63334 10.2031 3.31945 9.94196 3.05834C9.68085 2.79723 9.36696 2.66668 9.0003 2.66668C8.61141 2.66668 8.30308 2.78612 8.0753 3.02501C7.84752 3.2639 7.71141 3.5889 7.66696 4.00001Z" fill="url(#paint0_linear_0_17)"/>
</g>
</g>
<defs>
<linearGradient id="paint0_linear_0_17" x1="17.8616" y1="-1.17222" x2="3.01251" y2="14.4168" gradientUnits="userSpaceOnUse">
<stop offset="0.123144" stop-color="#EBFF38"/>
<stop offset="1" stop-color="#3DD6F5"/>
</linearGradient>
</defs>
</svg>
