<svg width="54" height="54" viewBox="0 0 54 54" fill="none" xmlns="http://www.w3.org/2000/svg">
<rect x="0.5625" y="0.5625" width="52.875" height="52.875" rx="26.4375" stroke="#7084FF" stroke-width="1.125"/>
<mask id="mask0_2296_421" style="mask-type:alpha" maskUnits="userSpaceOnUse" x="11" y="11" width="32" height="32">
<rect x="11.25" y="11.25" width="31.5" height="31.5" fill="#D9D9D9"/>
</mask>
<g mask="url(#mask0_2296_421)">
<path d="M26.999 27C25.5553 27 24.3193 26.4859 23.2912 25.4578C22.2631 24.4297 21.749 23.1938 21.749 21.75C21.749 20.3063 22.2631 19.0703 23.2912 18.0422C24.3193 17.0141 25.5553 16.5 26.999 16.5C28.4428 16.5 29.6787 17.0141 30.7068 18.0422C31.735 19.0703 32.249 20.3063 32.249 21.75C32.249 23.1938 31.735 24.4297 30.7068 25.4578C29.6787 26.4859 28.4428 27 26.999 27ZM16.499 37.5V33.825C16.499 33.0813 16.6904 32.3977 17.0732 31.7742C17.4561 31.1508 17.9646 30.675 18.599 30.3469C19.9553 29.6688 21.3334 29.1602 22.7334 28.8211C24.1334 28.482 25.5553 28.3125 26.999 28.3125C28.4428 28.3125 29.8646 28.482 31.2646 28.8211C32.6646 29.1602 34.0428 29.6688 35.399 30.3469C36.0334 30.675 36.542 31.1508 36.9248 31.7742C37.3076 32.3977 37.499 33.0813 37.499 33.825V37.5H16.499Z" fill="#7084FF"/>
</g>
</svg>
