<svg width="54" height="54" viewBox="0 0 54 54" fill="none" xmlns="http://www.w3.org/2000/svg">
<rect x="0.5625" y="0.5625" width="52.875" height="52.875" rx="26.4375" stroke="#7084FF" stroke-width="1.125"/>
<mask id="mask0_2296_425" style="mask-type:alpha" maskUnits="userSpaceOnUse" x="11" y="11" width="32" height="32">
<rect x="11.25" y="11.25" width="31.5" height="31.5" fill="#D9D9D9"/>
</mask>
<g mask="url(#mask0_2296_425)">
<path d="M22.7348 37.6874C22.147 37.6874 21.6438 37.4781 21.2252 37.0595C20.8066 36.6409 20.5973 36.1377 20.5973 35.5499C20.5973 34.9621 20.8066 34.4589 21.2252 34.0403C21.6438 33.6217 22.147 33.4124 22.7348 33.4124C23.3226 33.4124 23.8258 33.6217 24.2444 34.0403C24.663 34.4589 24.8723 34.9621 24.8723 35.5499C24.8723 36.1377 24.663 36.6409 24.2444 37.0595C23.8258 37.4781 23.3226 37.6874 22.7348 37.6874ZM33.4223 37.6874C32.8345 37.6874 32.3313 37.4781 31.9127 37.0595C31.4941 36.6409 31.2848 36.1377 31.2848 35.5499C31.2848 34.9621 31.4941 34.4589 31.9127 34.0403C32.3313 33.6217 32.8345 33.4124 33.4223 33.4124C34.0101 33.4124 34.5133 33.6217 34.9319 34.0403C35.3505 34.4589 35.5598 34.9621 35.5598 35.5499C35.5598 36.1377 35.3505 36.6409 34.9319 37.0595C34.5133 37.4781 34.0101 37.6874 33.4223 37.6874ZM20.811 18.4499H36.5751C36.9848 18.4499 37.2965 18.6325 37.5102 18.9976C37.724 19.3628 37.7329 19.7324 37.537 20.1064L33.7429 26.9464C33.547 27.3027 33.2842 27.5788 32.9547 27.7747C32.6252 27.9707 32.2645 28.0686 31.8726 28.0686H23.9104L22.7348 30.2061H35.5598V32.3436H22.7348C21.9332 32.3436 21.3276 31.9918 20.9179 31.2882C20.5082 30.5846 20.4904 29.8855 20.8645 29.1908L22.3073 26.5724L18.4598 18.4499H16.3223V16.3124H19.7957L20.811 18.4499Z" fill="#7084FF"/>
</g>
</svg>
