<svg width="21" height="21" viewBox="0 0 21 21" fill="none" xmlns="http://www.w3.org/2000/svg">
<mask id="mask0_2296_416" style="mask-type:alpha" maskUnits="userSpaceOnUse" x="0" y="0" width="21" height="21">
<rect width="20.75" height="20.75" fill="#D9D9D9"/>
</mask>
<g mask="url(#mask0_2296_416)">
<path d="M14.6277 18.8198L9.50692 13.2463C9.1005 13.6001 8.63312 13.8803 8.10478 14.0867C7.57644 14.2931 7.01424 14.3964 6.41816 14.3964C4.94152 14.3964 3.69179 13.8397 2.66898 12.7265C1.64617 11.6133 1.13477 10.2531 1.13477 8.64587C1.13477 7.03868 1.64617 5.67847 2.66898 4.56524C3.69179 3.452 4.94152 2.89539 6.41816 2.89539C7.8948 2.89539 9.14453 3.452 10.1673 4.56524C11.1902 5.67847 11.7016 7.03868 11.7016 8.64587C11.7016 9.29464 11.6067 9.90655 11.4171 10.4816C11.2274 11.0567 10.97 11.5653 10.6449 12.0077L15.7657 17.5812L14.6277 18.8198ZM6.41816 12.627C7.4342 12.627 8.29783 12.2399 9.00906 11.4658C9.72028 10.6917 10.0759 9.75173 10.0759 8.64587C10.0759 7.54001 9.72028 6.60002 9.00906 5.82592C8.29783 5.05182 7.4342 4.66477 6.41816 4.66477C5.40212 4.66477 4.53849 5.05182 3.82727 5.82592C3.11604 6.60002 2.76043 7.54001 2.76043 8.64587C2.76043 9.75173 3.11604 10.6917 3.82727 11.4658C4.53849 12.2399 5.40212 12.627 6.41816 12.627Z" fill="url(#paint0_linear_2296_416)"/>
</g>
<defs>
<linearGradient id="paint0_linear_2296_416" x1="8.45024" y1="2.89539" x2="8.91957" y2="22.7909" gradientUnits="userSpaceOnUse">
<stop stop-color="#405BFF"/>
<stop offset="1" stop-color="#7084FF"/>
</linearGradient>
</defs>
</svg>
